PathFileType	4	(X/Y/Z)	C:\Users\Basilio\Documents\Thesis Gigler\squatting_fais\c3dfiles\040\SLS_pre_back1\markers_experimental.trc
DataRate	CameraRate	NumFrames	NumMarkers	Units	OrigDataRate	OrigDataStartFrame	OrigNumFrames
200.000000	200.000000	4	64	mm	200.000000	804	1073
Frame#	Time	FHD			LBHD			RBHD			C7			T10			CLAV			LSHO			LUUPA			LMUPA			LDUPA			LLEP			LMEP			LRAD			LUL			LRFIN			RSHO			RUPA1			RMUPA			RDUPA			RLEP			RMEP			RRAD			RUL			RUFIN			LASI			RASI			USACR			LSACR			RSACR			LTHI1			LTHI2			LTHI3			LTHI4			LLFC			LMFC			LTIB1			LTIB2			LTIB3			LTIB4			LLMAL			LMMAL			LHEE			LMT1			LMT2			LMT5			RTHI			RTHI2			RTHI3			RTHI4			RLFC			RMFC			RTIB1			RTIB2			RTIB3			RTIB4			RLMAL			RMMAL			RHEE			RMT1			RMT2			RMT5			*61			*62			*63			
		X1	Y1	Z1	X2	Y2	Z2	X3	Y3	Z3	X4	Y4	Z4	X5	Y5	Z5	X6	Y6	Z6	X7	Y7	Z7	X8	Y8	Z8	X9	Y9	Z9	X10	Y10	Z10	X11	Y11	Z11	X12	Y12	Z12	X13	Y13	Z13	X14	Y14	Z14	X15	Y15	Z15	X16	Y16	Z16	X17	Y17	Z17	X18	Y18	Z18	X19	Y19	Z19	X20	Y20	Z20	X21	Y21	Z21	X22	Y22	Z22	X23	Y23	Z23	X24	Y24	Z24	X25	Y25	Z25	X26	Y26	Z26	X27	Y27	Z27	X28	Y28	Z28	X29	Y29	Z29	X30	Y30	Z30	X31	Y31	Z31	X32	Y32	Z32	X33	Y33	Z33	X34	Y34	Z34	X35	Y35	Z35	X36	Y36	Z36	X37	Y37	Z37	X38	Y38	Z38	X39	Y39	Z39	X40	Y40	Z40	X41	Y41	Z41	X42	Y42	Z42	X43	Y43	Z43	X44	Y44	Z44	X45	Y45	Z45	X46	Y46	Z46	X47	Y47	Z47	X48	Y48	Z48	X49	Y49	Z49	X50	Y50	Z50	X51	Y51	Z51	X52	Y52	Z52	X53	Y53	Z53	X54	Y54	Z54	X55	Y55	Z55	X56	Y56	Z56	X57	Y57	Z57	X58	Y58	Z58	X59	Y59	Z59	X60	Y60	Z60	X61	Y61	Z61	X62	Y62	Z62	X63	Y63	Z63	X64	Y64	Z64	

805	4.02	-156.5630187988282	1784.005615234375	-1224.375366210938	-274.2498474121094	1724.683349609375	-1273.298583984375	-331.2198181152344	1679.654541015625	-1145.25537109375	-322.1320800781251	1555.251708984375	-1192.35498046875	-346.9062805175782	1245.337524414063	-1169.902099609375	-191.2912292480469	1497.9228515625	-1196.867309570313	-253.9439849853516	1546.557006835938	-1339.41748046875	-94.24897766113283	1479.567749023438	-1409.862426757813	-64.45846557617189	1493.370971679688	-1372.7890625	-27.32613563537598	1460.80615234375	-1408.361572265625	26.10881423950196	1429.1171875	-1405.63720703125	9.888072013854982	1375.79443359375	-1368.130981445313	nan	nan	nan	298.6361694335938	1429.22314453125	-1351.117065429688	379.2060852050782	1444.554809570313	-1269.883422851563	-227.552474975586	1536.85498046875	-1052.945556640625	-71.4456024169922	1446.373779296875	-988.036315917969	-41.29586029052735	1471.811767578125	-1016.811462402344	-6.616149902343752	1424.260375976563	-999.9905395507815	52.305477142334	1410.792358398438	-1015.841491699219	34.71958923339844	1368.3291015625	-1079.031616210938	314.6218872070313	1463.461303710938	-1142.220336914063	323.9187011718751	1430.602172851563	-1073.261962890625	408.7468566894532	1466.624755859375	-1142.025756835938	-193.9290008544922	1051.311279296875	-1276.039672851563	-182.8447723388672	1054.61865234375	-1049.794189453125	-368.0327758789063	1120.206909179688	-1154.013793945313	-379.7957458496094	1089.896728515625	-1180.797485351563	-375.7954711914063	1091.234375	-1123.801513671875	-292.5828552246094	791.1804809570315	-1318.395141601563	-243.6007232666016	721.3850097656251	-1318.600708007813	-198.1500244140626	729.8871459960939	-1324.971923828125	-256.3896789550782	667.0223388671876	-1300.402709960938	-217.4653472900391	540.0447387695314	-1281.638305664063	-221.0096740722657	534.6334838867189	-1150.205322265625	-221.4073638916016	318.2424621582032	-1217.0068359375	-294.1724853515626	292.9965820312501	-1257.444946289063	-255.4985656738282	279.1931152343751	-1241.868408203125	-268.3819885253907	203.2933807373047	-1197.5615234375	-352.3757019042969	129.89111328125	-1206.250244140625	-322.4151306152344	146.2636260986328	-1123.846069335938	-419.8264465332032	100.1249694824219	-1160.577514648438	-208.0081176757813	55.21892166137697	-1127.35888671875	-206.8288574218751	48.45118331909181	-1173.304443359375	-256.0333557128907	34.35251998901368	-1224.015380859375	-245.0761718750001	792.7866821289065	-968.5884399414065	-212.3998107910157	734.8711547851564	-967.565368652344	-179.4423217773438	735.6423339843751	-971.936462402344	-243.1841125488282	657.4302368164064	-971.010437011719	-259.6177368164063	548.2037353515626	-980.7687988281252	-250.4527282714844	538.3452758789064	-1109.024169921875	-396.1819458007814	431.4987792968751	-1025.472412109375	-494.2391052246095	480.5260620117189	-1016.784545898438	-483.1756896972657	435.4700317382814	-1024.134155273438	-517.7103271484376	405.7283325195314	-1063.68408203125	-645.9315795898439	421.3388061523439	-1064.366455078125	-611.6066894531251	413.223602294922	-1146.184692382813	-688.1972045898439	478.1094055175782	-1129.36181640625	-647.3748168945314	260.9830627441407	-1147.001831054688	-658.9757080078126	258.8591918945313	-1107.788818359375	-706.8118286132814	289.6645507812501	-1067.186767578125	nan	nan	nan	nan	nan	nan	nan	nan	nan	
806	4.025	-157.5817260742188	1784.75927734375	-1224.232421875	-275.6118164062501	1725.631713867188	-1273.071166992188	-332.6741638183594	1680.338989257813	-1145.114501953125	-323.0423583984376	1555.885131835938	-1192.302612304688	-346.8507690429688	1245.683227539063	-1169.994873046875	-192.3364715576172	1499.03076171875	-1196.730224609375	-254.842025756836	1547.351440429688	-1339.427734375	-95.13747406005861	1480.810546875	-1409.790161132813	-65.41323852539064	1494.5146484375	-1372.72314453125	-28.43857574462891	1462.313598632813	-1408.34423828125	25.32752418518067	1430.466064453125	-1405.680297851563	9.089489936828615	1377.21435546875	-1368.129028320313	nan	nan	nan	297.2302856445313	1431.38623046875	-1351.092529296875	378.4651794433594	1446.59765625	-1269.805908203125	-229.3595275878907	1537.6103515625	-1053.050048828125	-72.48200988769533	1447.644775390625	-988.4185180664065	-42.11702728271485	1472.894653320313	-1016.84521484375	-8.053524971008303	1425.359008789063	-1000.725708007813	51.32651138305665	1412.353881835938	-1015.973876953125	33.95049285888673	1369.49755859375	-1078.816040039063	313.7979125976563	1464.842529296875	-1142.239379882813	322.8788757324219	1432.198608398438	-1072.792358398438	407.8316650390626	1468.085083007813	-1141.996948242188	-193.3565521240235	1052.424194335938	-1276.441284179688	-182.1621704101563	1055.584106445313	-1049.960205078125	-367.3313903808594	1120.628051757813	-1153.958984375	-379.7942199707032	1090.969970703125	-1180.859252929688	-376.8179626464844	1092.616577148438	-1124.052978515625	-292.7311706542969	792.0874023437502	-1318.4150390625	-244.0273590087891	722.1566162109376	-1318.484619140625	-198.5671386718751	730.6586303710939	-1324.860107421875	-256.9375610351563	667.5767211914064	-1300.396728515625	-218.4471893310547	540.9672241210939	-1281.20947265625	-222.178939819336	535.0212402343751	-1149.930908203125	-222.0765228271485	318.7342224121094	-1216.585693359375	-294.7451477050782	293.4367065429688	-1257.136352539063	-255.1638183593751	278.8973388671876	-1241.877197265625	-268.8801879882813	203.9420623779297	-1196.991943359375	-352.1157836914063	129.68701171875	-1205.909301757813	-322.4277648925782	146.1885070800782	-1123.541870117188	-419.8337707519532	100.1641311645508	-1160.434692382813	-207.9057159423829	55.04633712768556	-1127.308471679688	-206.7351226806641	48.3938674926758	-1173.168701171875	-256.0485839843751	34.46558380126954	-1223.97412109375	-243.4506530761719	793.9273071289065	-968.586120605469	-210.3257751464844	735.9541015625001	-967.4105224609377	-177.4579162597657	737.0444335937501	-972.245544433594	-241.6833953857422	658.8653564453126	-971.0864868164065	-257.7559509277344	549.0187377929689	-980.6756591796877	-248.312728881836	539.1398925781251	-1108.890625	-394.2433166503907	432.5850524902345	-1025.389282226563	-491.8523864746095	481.4602355957032	-1016.626525878906	-481.0196533203126	436.3172302246095	-1024.226440429688	-515.4403686523439	407.0740051269532	-1063.334716796875	-644.1441040039064	421.8483276367189	-1064.458740234375	-609.3003540039064	413.389373779297	-1146.415405273438	-685.5138549804689	478.602996826172	-1129.439208984375	-645.1853637695314	261.2108154296876	-1147.010864257813	-656.5477905273439	259.3793029785157	-1108.67578125	-704.2822265625001	289.9896545410157	-1067.660888671875	nan	nan	nan	nan	nan	nan	nan	nan	nan	
807	4.03	-159.1207122802735	1785.556762695313	-1224.1591796875	-276.9564819335938	1726.586669921875	-1273.009643554688	-333.4670715332032	1681.583251953125	-1145.051879882813	-324.2595214843751	1556.465942382813	-1192.15234375	-346.7783813476563	1245.999755859375	-1170.119995117188	-193.4507141113282	1499.797241210938	-1196.556884765625	-255.8475341796876	1548.101318359375	-1339.412231445313	-95.82410430908205	1481.82177734375	-1409.810668945313	-66.39879608154298	1495.561645507813	-1372.654418945313	-29.16964530944825	1463.287475585938	-1408.48388671875	24.83983612060548	1431.759765625	-1405.674194335938	8.948336601257326	1377.7490234375	-1368.18359375	nan	nan	nan	297.0169677734376	1432.95458984375	-1351.28271484375	377.6773376464844	1448.51708984375	-1269.876831054688	-229.8554229736329	1538.318237304688	-1052.512084960938	-73.37017059326173	1448.404052734375	-988.1510009765627	-42.84947586059571	1473.64453125	-1016.759460449219	-8.542311668395998	1426.20361328125	-1000.808532714844	50.57460021972658	1413.386840820313	-1015.899108886719	33.06132507324219	1370.07177734375	-1079.13037109375	312.8634033203126	1466.236450195313	-1142.114379882813	321.7546081542969	1433.365356445313	-1072.67529296875	406.9726867675782	1469.379516601563	-1142.057495117188	-192.6541900634766	1053.344848632813	-1276.938720703125	-180.9556274414063	1056.895385742188	-1050.607421875	-366.6460876464844	1120.854614257813	-1153.939208984375	-379.0848999023438	1091.314086914063	-1180.814575195313	-375.6969299316407	1093.041259765625	-1123.855224609375	-292.7445983886719	792.8389892578127	-1318.392944335938	-244.2626037597657	722.7434692382814	-1318.34814453125	-198.7755584716797	731.3264160156251	-1324.607177734375	-257.4316406250001	668.2287597656251	-1300.18408203125	-219.3502349853516	540.9750366210939	-1280.503173828125	-223.5084838867188	535.7910766601564	-1149.048706054688	-222.3955841064454	319.4052734375001	-1216.237060546875	-298.3577270507813	292.9450073242188	-1255.235717773438	-257.3086853027344	278.3627929687501	-1240.289672851563	-269.1815795898438	204.2427520751954	-1196.433837890625	-352.0984191894532	129.8494415283203	-1205.69384765625	-322.5655212402344	146.1436614990235	-1123.303344726563	-419.7784729003907	100.1482620239258	-1160.257934570313	-207.9631652832032	55.06492996215822	-1127.208984375	-206.6814575195313	48.40063476562501	-1173.102294921875	-257.0442199707032	35.21868896484376	-1223.997314453125	-241.9410705566407	794.559753417969	-968.6460571289065	-209.1361999511719	737.0473022460939	-967.3817138671877	-176.0050659179688	737.9629516601564	-972.158386230469	-239.2079010009766	659.4650878906251	-970.8479003906252	-255.3983459472657	550.0894165039064	-980.3555908203127	-246.2822265625001	540.0074462890626	-1108.724609375	-392.258026123047	433.2781677246095	-1025.1826171875	-490.0039672851564	482.0700073242189	-1016.691955566406	-478.8219604492189	436.763397216797	-1024.20263671875	-513.1882934570314	407.0279846191407	-1063.593994140625	-641.6647338867189	422.0828247070314	-1064.648071289063	-606.9591064453126	413.9121093750001	-1146.3564453125	-683.3894042968751	478.4989318847657	-1129.623168945313	-642.5313720703126	261.8467712402344	-1147.164306640625	-653.6436767578126	259.9527587890626	-1108.180908203125	-702.2887573242189	290.4756774902344	-1067.542602539063	nan	nan	nan	nan	nan	nan	nan	nan	nan	
808	4.035	-160.1518096923828	1786.437622070313	-1224.298706054688	-277.7540588378907	1727.124267578125	-1272.920166015625	-334.7205810546876	1682.430786132813	-1144.998046875	-324.9207458496094	1556.651123046875	-1192.1748046875	-346.8230590820313	1246.331787109375	-1170.3095703125	-194.3955078125001	1500.854125976563	-1196.496948242188	-256.8697814941407	1548.860107421875	-1339.307739257813	-96.7529220581055	1482.83203125	-1409.7490234375	-66.46482849121095	1496.247436523438	-1372.637573242188	-30.08114814758301	1464.547241210938	-1408.375610351563	24.31675910949708	1432.765625	-1405.749267578125	7.55655097961426	1380.320190429688	-1368.512329101563	nan	nan	nan	295.6606140136719	1434.878540039063	-1351.371459960938	377.2764892578126	1450.2421875	-1269.998046875	-230.6434020996094	1538.76025390625	-1052.4453125	-74.39635467529298	1449.1494140625	-988.1379394531252	-44.02348327636719	1474.7646484375	-1016.418884277344	-9.000820159912111	1427.589111328125	-999.8709106445315	49.45166778564455	1413.844116210938	-1015.703918457031	32.12296295166016	1371.219848632813	-1078.975952148438	311.8271179199219	1467.604858398438	-1142.018188476563	321.0584716796876	1434.9287109375	-1072.83837890625	405.9497680664064	1470.650756835938	-1141.86669921875	-192.0624542236329	1054.25439453125	-1277.524047851563	-179.8516082763672	1057.953002929688	-1051.183349609375	-366.1210021972657	1121.338256835938	-1153.911010742188	-378.5182189941407	1091.6943359375	-1180.802490234375	-374.7928771972657	1093.41162109375	-1123.904541015625	-292.5805358886719	793.4109497070315	-1318.273803710938	-244.5587768554688	723.2650756835939	-1318.143798828125	-199.0748748779297	731.9227294921876	-1324.209350585938	-257.9362182617188	668.8908691406251	-1299.873046875	-220.3143463134766	541.5571899414064	-1279.95849609375	-223.9765319824219	536.4571533203126	-1148.722412109375	-222.6386260986329	319.9202880859376	-1215.98583984375	-298.7814941406251	293.4194030761719	-1254.660034179688	-257.7214050292969	278.6130065917969	-1239.903442382813	-269.3241577148438	204.7301788330079	-1196.040283203125	-352.0839538574219	129.947021484375	-1205.4462890625	-322.6332092285157	146.1065063476563	-1122.8955078125	-419.7960815429689	100.1636810302735	-1160.041748046875	-207.9195404052735	54.93358993530275	-1127.013305664063	-206.7942962646485	48.59304046630861	-1172.9375	-256.8029174804688	35.61943054199219	-1224.247192382813	-240.5371704101563	795.3198852539065	-968.6984863281252	-207.0567626953126	738.1507568359376	-967.464538574219	-174.4664001464844	739.1256713867189	-972.3385009765627	-237.4354553222657	660.4075317382814	-970.8308105468752	-253.6674041748047	550.8129272460939	-980.4873657226565	-244.3254699707032	540.8004760742189	-1108.670043945313	-389.7710571289064	433.4925231933595	-1025.570922851563	-487.9440917968751	482.2119140625001	-1017.050109863281	-476.7368774414064	437.3076171875001	-1024.4453125	-510.9685363769532	408.0033264160157	-1063.583251953125	-639.8195800781251	422.6040649414064	-1064.74609375	-604.7942504882814	414.1609802246095	-1146.664428710938	-681.2820434570314	479.344696044922	-1130.020263671875	-640.2789916992189	262.5154418945313	-1147.260009765625	-651.6674194335939	260.2439575195313	-1107.871704101563	-699.7196655273439	290.6319885253907	-1067.734619140625	nan	nan	nan	nan	nan	nan	nan	nan	nan	
